<?xml version="1.0" encoding="utf-8"?>
<!-- Generator: Adobe Illustrator 18.1.1, SVG Export Plug-In . SVG Version: 6.00 Build 0)  -->
<!DOCTYPE svg PUBLIC "-//W3C//DTD SVG 1.1//EN" "http://www.w3.org/Graphics/SVG/1.1/DTD/svg11.dtd">
<svg version="1.1" id="Layer_1" xmlns="http://www.w3.org/2000/svg" xmlns:xlink="http://www.w3.org/1999/xlink" x="0px" y="0px"
	 viewBox="0 0 226.8 198.4" enable-background="new 0 0 226.8 198.4" xml:space="preserve">
<path fill="#352829" d="M93.8,184.6c-1.5,0-3.1-0.2-4.5-0.5c-1.2-0.2-2.5-0.6-3.8-1.1l-74.3-29.1c-0.5-0.2-0.9-0.4-1.3-0.6
	c-0.4-0.2-0.7-0.5-1-0.7c-1.9-1.8-2.4-4.7-1.3-7.1l1.6-3.6c5.8-11.6,3.5-24.5-6.1-32c-0.3-0.2-0.7-0.7-1-0.9l-0.5-0.8
	c-0.2-0.4-0.3-0.7-0.4-1.1c-0.2-0.9-0.1-1.7,0.1-2.5c0.3-0.8,0.7-1.5,1.3-2h0c1.3-0.8,2.8-1.4,4.3-1.8l12.8-3.8
	c3.7-8.8,1.6-18.2-5.4-23.8l-1.5-1.7c-0.1-0.3-0.2-0.7-0.3-1c-0.1-0.8-0.1-1.5,0.1-2.3l0,0c0.3-0.9,0.9-1.6,1.6-2.1l0.6-0.4
	c0.5-0.3,1-0.5,1.6-0.7l24.2-7.2c1.7-6,0-12-4.7-15.7c-0.2-0.2-1.4-1.6-1.6-2.4c-0.1-0.7-0.1-1.4,0.1-2c0,0,0,0,0,0
	c0.3-0.8,0.8-1.4,1.5-1.8l0,0c0.8-0.5,1.8-1,2.7-1.3l73.1-21.8c0.4-0.1,0.8-0.2,1.3-0.2c0.5,0,1.1,0.1,1.6,0.3L163,31.8
	c1.2,0.5,2.4,1.2,3.4,2c7.6,6.1,10.4,16.3,7.3,25.6l4.7,1.9c1.5,0.6,3,1.4,4.2,2.4c8.3,6.7,12.2,17.5,10.3,28.1l11.8,4.7
	c1.8,0.7,3.5,1.7,5,2.9c14.3,11.5,17.2,32.2,6.8,48.1c-0.9,1.3-2.2,2.3-3.7,2.7l-112.1,33.4c-1.1,0.3-2.1,0.5-3.1,0.7
	c-1.1,0.2-2.3,0.3-3.5,0.3H93.8z"/>
<path fill="#EDDADC" d="M96,170.5c-0.2,0.8-0.4,1.5-0.7,2.2l0,0.1c0,0.1-0.1,0.2-0.1,0.3l0,0.1c-0.9,2.1-3,3.5-5.2,3.5
	c-0.7,0-1.5-0.1-2.1-0.4L13.2,147l-2-0.8l-1-0.6c8.1-13.3,6-29.2-5.4-38.2c-0.2-0.2-0.7-0.6-0.7-0.6s0.3,0.1,0.8,0.3l0.8,0.3
	c1.4,0.6,3.6,1.4,6.5,2.5l2.2,0.8c1.2,0.5,2.5,1,3.9,1.5l2.4,1c4.1,1.6,8.6,3.4,13.2,5.2c1,0.4,2,0.8,3.1,1.2
	c3.6,1.4,7.2,2.8,10.6,4.2c0.9,0.4,1.9,0.7,2.8,1.1c10.9,4.3,19.4,7.7,19.4,7.7l0.5,0.2l13.6,5.4c0.6,0.2,1.1,0.5,1.6,0.9
	c0.7,0.5,1.4,1,2,1.6c0.4,0.4,0.9,0.8,1.4,1.3c0.2,0.2,0.4,0.4,0.6,0.6c0.4,0.4,0.8,0.9,1.1,1.3c0.4,0.5,0.8,1,1.1,1.5
	c0.5,0.6,0.9,1.3,1.3,2c0.2,0.4,0.4,0.8,0.7,1.2c0.2,0.3,0.3,0.6,0.5,0.9l0.2,0.4c0.2,0.4,0.4,0.8,0.6,1.2
	C97.2,157.2,97.7,164,96,170.5z M22,120c0,0.4,0.2,0.8,0.7,1l45.1,17.8l5.3,2.1c0.5,0.2,1.1,0,1.4-0.6c0.2-0.5,0-1.1-0.6-1.4
	l-2.9-1.1L23.4,119c-0.5-0.2-1.1,0-1.4,0.6C22,119.7,22,119.8,22,120z M70.4,162.5l-35.4-14l-15-5.9c-0.5-0.2-1.1,0.1-1.4,0.6
	c0,0.1-0.1,0.3-0.1,0.4c0,0.4,0.2,0.8,0.7,1l12.5,5l37.9,15c0.5,0.2,1.2,0,1.4-0.6C71.2,163.4,70.9,162.8,70.4,162.5z M77.5,153.7
	l-25.7-10.2l-14.2-5.6c-0.5-0.2-1.1,0-1.4,0.6c0,0.1-0.1,0.3-0.1,0.4c0,0.4,0.2,0.8,0.7,1l11.7,4.6l28.2,11.2c0.5,0.2,1.1,0,1.4-0.6
	C78.3,154.5,78,153.9,77.5,153.7z"/>
<path fill="#659933" d="M207.9,101.5c-1.3-1-2.7-1.8-4.2-2.5l-14-5.5c-0.8,2.9-2,5.7-3.7,8.3c-0.4,0.6-1,1-1.7,1.2l-0.7,0.2
	l-90.4,27c-0.7,0.2-1.5,0.4-2.2,0.5c-0.8,0.1-1.6,0.2-2.5,0.2h-0.4c-1.1,0-2.1-0.1-3.2-0.4c-0.9-0.2-1.8-0.5-2.7-0.8l-60.4-23.6
	c-0.2-0.1-0.4-0.2-0.6-0.3c-1.3-0.8-1.8-2.5-1.1-3.9c0,0,0-0.1,0-0.1c0-0.1,0.1-0.1,0.1-0.2c0.5-0.8,1-1.7,1.4-2.6L5.4,104
	c0,0,0,0,0,0c-0.7,0.2-1.2,0.7-1.4,1.3c-0.1,0.3-0.1,0.7-0.1,1c0,0.2,0.1,0.4,0.2,0.5c0,0,0.3,0.1,0.8,0.3c0.2,0.1,0.5,0.2,0.8,0.3
	c1.4,0.5,3.6,1.4,6.5,2.5c0.7,0.3,1.4,0.5,2.2,0.9c1.2,0.5,2.5,1,3.9,1.5c0.8,0.3,1.6,0.6,2.4,1c4.1,1.6,8.6,3.4,13.2,5.2l3.1,1.2
	c3.6,1.4,7.2,2.8,10.6,4.2l2.8,1.1c10.9,4.3,19.4,7.7,19.4,7.7l0.5,0.2l13.6,5.4c0.6,0.2,1.1,0.5,1.6,0.9c0.7,0.5,1.4,1,2,1.6
	c0.5,0.4,0.9,0.8,1.4,1.3c0.2,0.2,0.4,0.4,0.6,0.6c0.4,0.4,0.8,0.9,1.1,1.3c0.4,0.5,0.8,1,1.1,1.5c0.4,0.6,0.9,1.3,1.3,2
	c0.2,0.4,0.4,0.8,0.7,1.2c0.2,0.3,0.3,0.6,0.5,0.9l0.2,0.4c0.2,0.4,0.4,0.8,0.5,1.2c2.5,6,2.9,12.9,1.2,19.3
	c-0.2,0.8-0.4,1.5-0.7,2.2l0,0.1c0,0.1-0.1,0.2-0.1,0.3l0,0.1c-0.9,2.1-3,3.5-5.2,3.5c-0.7,0-1.5-0.1-2.2-0.4L13.2,147l-2-0.8
	l-1-0.6c0,0.1-0.1,0.1-0.1,0.2c0,0,0,0.1,0,0.1c-0.9,1.7-0.3,3.8,1.3,4.8c0.2,0.2,0.5,0.3,0.8,0.4l74.4,29.1c1.1,0.4,2.2,0.8,3.3,1
	c1.3,0.3,2.6,0.4,3.9,0.4h0.4c1.1,0,2.1-0.1,3.1-0.3c0.9-0.1,1.8-0.3,2.7-0.6l111.3-33.2l0.9-0.3c0.8-0.2,1.6-0.8,2-1.5
	C223.7,131.2,221,112.1,207.9,101.5z M197.5,104.6l-51,15.3l-19.7,5.9L126,126l-32.7,9.8c-0.6,0.2-1.1-0.1-1.3-0.7
	c0-0.1,0-0.2,0-0.3c0-0.5,0.3-0.9,0.7-1l30.1-9l0.7-0.2l19.7-5.9l53.6-16c0.6-0.2,1.1,0.1,1.3,0.7c0,0.1,0,0.2,0,0.3
	C198.2,104.1,197.9,104.5,197.5,104.6z"/>
<path fill="#EDDADC" d="M89,106.1c-0.1-0.3-0.3-0.7-0.5-1l-0.1-0.3c-0.1-0.3-0.3-0.5-0.4-0.8c-0.2-0.3-0.4-0.7-0.5-1
	c-0.3-0.6-0.7-1.1-1.1-1.6c-0.3-0.4-0.6-0.8-0.9-1.2c-0.3-0.3-0.6-0.7-0.9-1c-0.2-0.2-0.3-0.3-0.5-0.5c-0.4-0.4-0.7-0.7-1.1-1.1
	c-0.5-0.5-1.1-0.9-1.6-1.3c-0.4-0.3-0.8-0.5-1.3-0.7L69,91.3l-0.4-0.2c0,0-2.2-0.9-5.7-2.2c-0.4-0.2-0.8-0.3-1.2-0.5
	c-0.6-0.2-1.2-0.5-1.9-0.7c0,0-0.1,0-0.1,0c-0.4-0.2-0.9-0.3-1.4-0.5c-0.4-0.1-0.7-0.3-1.1-0.4c-0.4-0.2-0.8-0.3-1.2-0.5
	c-0.5-0.2-1.1-0.4-1.7-0.6c-0.5-0.2-1.1-0.4-1.6-0.6l-2.3-0.9c-2.8-1.1-5.7-2.3-8.6-3.4l-2.5-1c-3.7-1.5-7.4-2.9-10.7-4.2
	c-0.7-0.3-1.3-0.5-2-0.8c-1.1-0.4-2.2-0.9-3.1-1.2c-0.6-0.2-1.2-0.5-1.8-0.7c-2.3-0.9-4.1-1.6-5.2-2.1c-0.3-0.1-0.5-0.2-0.7-0.3
	c-0.3-0.1-0.5-0.2-0.6-0.2c0.1,0.1,0.4,0.4,0.5,0.5c8.6,6.7,10.7,18.2,5.8,28.4c-0.4,0.9-0.9,1.7-1.4,2.6l0.8,0.5l1.6,0.6l60.5,23.7
	c0.6,0.2,1.1,0.3,1.7,0.3c1.8,0,3.5-1.1,4.3-2.8l0-0.1c0-0.1,0.1-0.2,0.1-0.2l0-0.1c0.2-0.5,0.4-1.1,0.5-1.8
	C91.3,116.6,91,111,89,106.1z M30.4,81.6c-0.3-0.1-0.5-0.5-0.5-0.8c0-0.1,0-0.2,0.1-0.3c0.2-0.4,0.7-0.7,1.1-0.5l23.5,9.3l15.1,6
	l2.3,0.9c0.4,0.2,0.7,0.7,0.5,1.1c-0.2,0.4-0.7,0.6-1.1,0.5L67,96.1l-15.1-6L30.4,81.6z M69.6,116.5c-0.2,0.4-0.7,0.7-1.1,0.5
	l-30.8-12.2l-10.2-4c-0.3-0.1-0.5-0.5-0.5-0.8c0-0.1,0-0.2,0.1-0.3c0.2-0.4,0.7-0.6,1.1-0.5l12.2,4.8l28.7,11.4
	C69.6,115.5,69.8,116,69.6,116.5z M75.4,109.3c-0.2,0.4-0.7,0.6-1.1,0.5l-22.9-9.1L41.9,97c-0.3-0.1-0.5-0.4-0.5-0.8
	c0-0.1,0-0.2,0.1-0.3c0.2-0.4,0.7-0.7,1.1-0.5L54,99.9l20.9,8.3C75.4,108.4,75.6,108.9,75.4,109.3z"/>
<path fill="#35398E" d="M180.8,65.8c-1-0.8-2.2-1.5-3.4-2l-7.3-2.9c-0.4,1-1,1.9-1.5,2.8c-0.3,0.5-0.8,0.8-1.3,0.9l-0.5,0.1
	L97.2,85.5c-0.6,0.2-1.1,0.3-1.7,0.4c-0.6,0.1-1.3,0.2-1.9,0.2h-0.3c-0.8,0-1.6-0.1-2.4-0.3c-0.7-0.1-1.4-0.3-2.1-0.6L42.3,67
	c-0.2-0.1-0.3-0.2-0.5-0.3c-1-0.6-1.4-2-0.8-3c0,0,0,0,0,0c0,0,0-0.1,0.1-0.1c0.7-1.2,1.3-2.4,1.8-3.6l-26.4,7.9c0,0,0,0,0,0
	c-0.5,0.1-1,0.5-1.2,1.1c-0.1,0.3-0.1,0.6,0,0.8c0,0.2,0.1,0.3,0.1,0.4c0,0,0,0,0,0c0.1,0,0.3,0.1,0.6,0.2c0.2,0.1,0.4,0.2,0.7,0.3
	c1.1,0.5,3,1.2,5.2,2.1c0.6,0.2,1.2,0.5,1.8,0.7c1,0.4,2,0.8,3.1,1.2c0.6,0.3,1.3,0.5,2,0.8c3.3,1.3,7,2.8,10.7,4.2l2.5,1
	c2.9,1.1,5.8,2.3,8.6,3.4l2.3,0.9c0.5,0.2,1.1,0.4,1.6,0.6c0.6,0.2,1.1,0.4,1.7,0.6c0.4,0.2,0.8,0.3,1.2,0.5
	c0.4,0.1,0.7,0.3,1.1,0.4c0.5,0.2,0.9,0.4,1.4,0.5c0,0,0.1,0,0.1,0c0.7,0.3,1.3,0.5,1.9,0.7c0.4,0.2,0.8,0.3,1.2,0.5
	c3.5,1.4,5.7,2.2,5.7,2.2l0.4,0.2L80,95.7c0.5,0.2,0.9,0.4,1.3,0.7c0.6,0.4,1.1,0.9,1.6,1.3c0.4,0.3,0.7,0.7,1.1,1.1
	c0.2,0.1,0.3,0.3,0.5,0.5c0.3,0.3,0.6,0.7,0.9,1c0.3,0.4,0.6,0.8,0.9,1.2c0.4,0.5,0.7,1.1,1.1,1.6c0.2,0.3,0.4,0.6,0.5,1
	c0.1,0.3,0.3,0.5,0.4,0.8l0.1,0.3c0.2,0.3,0.3,0.7,0.5,1c2,4.9,2.4,10.4,1,15.7c-0.2,0.6-0.3,1.2-0.5,1.8l0,0.1
	c0,0.1-0.1,0.2-0.1,0.2l0,0.1c-0.7,1.7-2.4,2.8-4.3,2.8c-0.6,0-1.2-0.1-1.7-0.3l-60.5-23.7l-1.6-0.6l-0.8-0.5c0,0-0.1,0.1-0.1,0.2
	c0,0,0,0,0,0.1c-0.7,1.4-0.3,3.1,1.1,3.9c0.2,0.1,0.4,0.2,0.6,0.3l60.4,23.6c0.9,0.3,1.8,0.6,2.7,0.8c1,0.2,2.1,0.3,3.2,0.4h0.4
	c0.9,0,1.7-0.1,2.5-0.2c0.7-0.1,1.4-0.3,2.2-0.5l90.4-27l0.7-0.2c0.7-0.2,1.3-0.6,1.7-1.2c1.7-2.6,3-5.5,3.7-8.3
	C192.3,83.4,189.1,72.5,180.8,65.8z M172.4,68.4L146,76.3l-15.1,4.5l-16,4.8l-0.6,0.2l-26.5,7.9c-0.5,0.1-0.9-0.1-1.1-0.6
	c0-0.1,0-0.2,0-0.2c0-0.4,0.2-0.7,0.6-0.8l24.5-7.3l0.6-0.2l16-4.8l15.1-4.5l28.4-8.5c0.5-0.1,0.9,0.1,1.1,0.6c0,0.1,0,0.2,0,0.2
	C173,67.9,172.7,68.3,172.4,68.4z"/>
<path fill="#EDDADC" d="M93.9,67c-0.1-0.3-0.2-0.5-0.3-0.8L93.5,66c-0.1-0.2-0.2-0.4-0.3-0.6c-0.1-0.3-0.3-0.5-0.4-0.8
	c-0.3-0.4-0.5-0.9-0.8-1.3c-0.2-0.3-0.5-0.6-0.7-0.9c-0.2-0.3-0.5-0.5-0.7-0.8c-0.1-0.1-0.2-0.3-0.4-0.4c-0.3-0.3-0.6-0.6-0.9-0.8
	c-0.4-0.4-0.8-0.7-1.3-1c-0.3-0.2-0.6-0.4-1-0.6l-8.5-3.4l-0.3-0.1c0,0,0,0-0.1,0c0,0-0.1,0-0.1,0c-0.2-0.1-0.4-0.2-0.8-0.3
	c-0.1,0-0.3-0.1-0.4-0.2c-0.2-0.1-0.4-0.1-0.6-0.2c-0.4-0.2-0.9-0.4-1.5-0.6c-1.4-0.6-3.3-1.3-5.3-2.1c-1-0.4-2.2-0.9-3.3-1.3
	L64.4,50c-2.1-0.9-4.4-1.7-6.6-2.6l-1.9-0.8c-2.9-1.1-5.7-2.3-8.2-3.3c-0.5-0.2-1-0.4-1.5-0.6c-0.9-0.3-1.7-0.6-2.4-1
	c-0.5-0.2-0.9-0.4-1.3-0.5c-1.8-0.7-3.2-1.2-4-1.6c-0.2-0.1-0.4-0.1-0.5-0.2c-0.3-0.1-0.4-0.2-0.5-0.2c0.1,0.1,0.3,0.3,0.4,0.4
	c6.1,4.8,8,12.8,5.2,20.2c-0.5,1.2-1,2.5-1.8,3.6l0.6,0.4l1.2,0.5l46.6,18.2c0.4,0.2,0.9,0.3,1.3,0.3c1.4,0,2.7-0.9,3.3-2.2l0-0.1
	c0-0.1,0.1-0.1,0.1-0.2l0-0.1c0.2-0.4,0.3-0.9,0.4-1.4C95.7,75,95.5,70.8,93.9,67z M48.8,48.1c-0.3-0.1-0.4-0.4-0.4-0.6
	c0-0.1,0-0.2,0-0.2c0.1-0.3,0.5-0.5,0.9-0.4l16,6.3L79,58.6l1.8,0.7c0.3,0.1,0.5,0.5,0.4,0.8c-0.1,0.3-0.5,0.5-0.9,0.4L77,59.3
	l-13.7-5.4L48.8,48.1z M79,75c-0.1,0.3-0.5,0.5-0.8,0.4L54.5,66l-7.8-3.1c-0.3-0.1-0.4-0.4-0.4-0.6c0-0.1,0-0.2,0-0.2
	c0.1-0.3,0.5-0.5,0.8-0.4l9.4,3.7l22.1,8.7C79,74.3,79.2,74.6,79,75z M83.5,69.5c-0.1,0.3-0.5,0.5-0.8,0.4l-17.6-7l-7.3-2.9
	c-0.3-0.1-0.4-0.3-0.4-0.6c0-0.1,0-0.2,0-0.3c0.1-0.3,0.5-0.5,0.8-0.4l8.9,3.5l16.1,6.4C83.5,68.7,83.6,69.1,83.5,69.5z"/>
<path fill="#CC1236" d="M164.6,36c-0.8-0.6-1.7-1.2-2.6-1.5l-48.3-19.1c-0.2-0.1-0.4-0.1-0.6-0.1c-0.2,0-0.3,0-0.5,0.1L38.1,37.5
	c0,0,0,0,0,0c-0.4,0.1-0.8,0.4-0.9,0.8c-0.1,0.2-0.1,0.4,0,0.6c0,0.1,0.1,0.2,0.1,0.3c0,0,0,0,0,0c0,0,0.2,0.1,0.5,0.2
	c0.2,0.1,0.3,0.1,0.5,0.2c0.9,0.4,2.3,0.9,4,1.6c0.4,0.2,0.9,0.3,1.3,0.5c0.8,0.3,1.6,0.6,2.4,1c0.5,0.2,1,0.4,1.5,0.6
	c2.5,1,5.4,2.1,8.2,3.3l1.9,0.8c2.2,0.9,4.5,1.8,6.6,2.6l1.7,0.7c1.2,0.4,2.3,0.9,3.3,1.3c2,0.8,3.9,1.5,5.3,2.1
	c0.6,0.2,1,0.4,1.5,0.6c0.2,0.1,0.4,0.2,0.6,0.2c0.2,0.1,0.3,0.1,0.4,0.2c0.3,0.1,0.6,0.2,0.8,0.3c0,0,0.1,0,0.1,0
	c0.1,0,0.1,0,0.1,0l0.3,0.1L87,59c0.4,0.1,0.7,0.3,1,0.6c0.4,0.3,0.9,0.6,1.3,1c0.3,0.3,0.5,0.5,0.9,0.8c0.1,0.1,0.2,0.2,0.4,0.4
	c0.3,0.3,0.5,0.5,0.7,0.8c0.2,0.3,0.5,0.6,0.7,0.9c0.3,0.4,0.6,0.8,0.8,1.3c0.1,0.2,0.3,0.5,0.4,0.8c0.1,0.2,0.2,0.4,0.3,0.6
	l0.1,0.2c0.1,0.3,0.2,0.5,0.3,0.8c1.6,3.8,1.8,8,0.8,12.1c-0.1,0.5-0.3,0.9-0.4,1.4l0,0.1c0,0.1,0,0.1-0.1,0.2l0,0.1
	c-0.6,1.3-1.9,2.2-3.3,2.2c-0.5,0-0.9-0.1-1.3-0.3L42.9,64.4l-1.2-0.5l-0.6-0.4c0,0-0.1,0.1-0.1,0.1c0,0,0,0,0,0
	c-0.5,1.1-0.2,2.4,0.8,3c0.1,0.1,0.3,0.2,0.5,0.3l46.5,18.2c0.7,0.3,1.4,0.5,2.1,0.6c0.8,0.2,1.6,0.3,2.4,0.3h0.3
	c0.7,0,1.3-0.1,1.9-0.2c0.5-0.1,1.1-0.2,1.7-0.4l69.6-20.8l0.5-0.1c0.5-0.2,1-0.5,1.3-0.9c0.6-0.9,1.1-1.8,1.5-2.8
	C174.1,52.2,172,41.9,164.6,36z M158.1,37.9l-26.3,7.9l-5.6,1.7l-12.3,3.7l-0.4,0.1l-20.4,6.1c-0.3,0.1-0.7-0.1-0.8-0.4
	c0-0.1,0-0.1,0-0.2c0-0.3,0.2-0.5,0.5-0.6l18.8-5.6l0.4-0.1l12.3-3.7l5.6-1.7l27.9-8.3c0.4-0.1,0.7,0.1,0.8,0.4c0,0.1,0,0.1,0,0.2
	C158.6,37.6,158.4,37.8,158.1,37.9z"/>
</svg>
